<mxfile host="Electron" agent="Mozilla/5.0 (Macintosh; Intel Mac OS X 10_15_7) AppleWebKit/537.36 (KHTML, like Gecko) draw.io/26.2.2 Chrome/134.0.6998.178 Electron/35.1.2 Safari/537.36" version="26.2.2">
  <diagram name="Page-1" id="Jafp6PfTu1X0-Y5Bq4iZ">
    <mxGraphModel dx="1428" dy="859" grid="1" gridSize="10" guides="1" tooltips="1" connect="1" arrows="1" fold="1" page="1" pageScale="1" pageWidth="827" pageHeight="1169" math="0" shadow="0">
      <root>
        <mxCell id="0" />
        <mxCell id="1" parent="0" />
        <mxCell id="bJMO8v2EHOdU1gCzrCnr-1" value="" style="group" vertex="1" connectable="0" parent="1">
          <mxGeometry x="400" y="280" width="190" height="188" as="geometry" />
        </mxCell>
        <mxCell id="bJMO8v2EHOdU1gCzrCnr-2" value="" style="image;points=[];aspect=fixed;html=1;align=center;shadow=0;dashed=0;image=img/lib/allied_telesis/computer_and_terminals/Personal_Computer_with_Server.svg;" vertex="1" parent="bJMO8v2EHOdU1gCzrCnr-1">
          <mxGeometry width="190" height="190" as="geometry" />
        </mxCell>
        <mxCell id="bJMO8v2EHOdU1gCzrCnr-3" value="" style="shape=image;verticalLabelPosition=bottom;labelBackgroundColor=default;verticalAlign=top;aspect=fixed;imageAspect=0;image=data:image/png,iVBORw0KGgoAAAANSUhEUgAAASwAAACoCAMAAABt9SM9AAAAyVBMVEX/////00I2c6VkZGQ5cqJfX19aWlo6cqFXV1dTU1P/0TeHh4f/0CwaZ57/5qPp6emzs7P/+/CdnZ3/67f/11zJycnL1+P29vb/23FnZ2d7mbZrkbW0xthsbGwaZZz/4Ih9fX3c4+uqqqri4uK7u7vQ0ND/2WX/9NqNjY3w8PCXl5fCwsL/1En/+Oj/7sP/zyJbh7D/8tD/3n7/9uH/45b/6Ky7ytqXsMlGe6leibGKpsLR2+eiuM4qaZtNf6q2xtgAWpT/5JxISEiuetEyAAAKHklEQVR4nO2d+0ObOhTHwQIFpKWiFbW2Vlq0D7XqNl9Xtrv9/3/UTcK7JRC69MaGfP1hpaRpzsdzDnk6SRLaX7n2daQ566Z8YV2/vF787Iw6qUadt8Hrr2vWDftqml8OAJzgYFMBYDa4FE6W6OVxVMQpQ2z0+MK6kV9Dp0qnlFSozoHAJUkXIwJUCNfAZd1W1norD8B8NNqsW8tWjzVYAedqdKL/jNJVRxm8kYTjG+sGs1TE6g32pebv1V4WvLJuMTudhrCU6PK9EpbSYdpepvpEvtQ5jS7nFZGoHChBczsQlyGs5PqtyrGU4INhc9nqMgzD5HpQgUpRDgYMm8tWIaxRcq0IWHiFsDq/osvrsnGPoghYiFbU1yxPWQJWyCG4BBen1agELERrVDybtc5KwCJQCErAImYVSsAiZyU8i5xVo2Fl13JyKkbV6DC0TzH65x1Dq8GehdcgQ+pAeFa5Bhte1RaehdOgKAbbkWd1r2J9Pz5i3dLd6fTjEZfSCxJ80hXNuBaEdWamWt3csjZqJ3JfK8Y0ZX2GbM46k7OynlkbtgO91CNViCrMWXlYsilzF4sXpOPAIljtMlgAF2e0BjVZ5R2qnfxbCEu+Y20eVX3UZbX5HMTlLORaV6wNpKjTujGYTmC1c6wwsOQVR8/Ev4nBdgYVLgxl+YS1idT0SuE5CEm18bCsJ9ZGUpJLugWrDFYbwWrjYJlnrK2kpE8qjgUDEu9Z8oqT7sNWfrXODPlVW7mQMLDMY9ZmUlHp2mm5X7XXULXRnqNiWHzEYZ0ozDtVO8sNCe2iOSmCJVus7aSix239KocqpDWCi9dWMaxvrA2lIfJnITa1R2HYbr+D+u6LYXGRtMhTFia1xyEIoxDue3swi2F9Z20pBb2QpqyEzXqST1i1H2GFz8WwZB4yPGl+x8dgQitA222Ko5CPqYePrWBF4+d2mttBdkcHxH5gHIuLx2H53sdKx0rzVTs8TIdzLC5gEfUcCrJ6PmMFo2gL/BnOsWSLgwFP1RbkTWzR0ir4OYD/BkEw+vkZnXLqYh1Ltu7ZGkpDlbA6o+DxokQfn6fJmZ0SVrLFwQRgRX4fvf8iP750VsKKf1idR/Ij0EddC5uveIFV6laXmYJHeN3fPnRvVqWo+IBVkrNG8amdb90z0ypXBSmZj5H0T3wMRqcFHu4ss5pFNSwOnob4g3EX6P79SVnWrgOLg37WBTYIUdfpYUUHlSyvWFtKQbh1sPBUKj1WsszaUgrCzTqM4Fn6e4qsblhbSkG4pfuf8OYNhcQeiYv9DpiZUhSFt5RyO4L1g7WlNFQ8B49miK/oORYXfVLcHE0HjnMosuJiOgvzOFQ6LnadZitxssj6T0HSUhR4MvqJJiweVsKkot1ZSgjrmGIY8tAlhdpYslDowzJ52eB9PdpkRRvWioMph1DvO4fFjWOtuVa0bEMXFg8zDrEugnVWdGFZD6wtpKlgnRVVWBYPe0JSxYGo7AKWxcMQOqvTUZ5VG/4hKDqwVlyMoHO6DoIDJV5spudZpnXCTachq4tRQByGJpms1TMvhwXWZb8qo04A/4hyJwj+lUpgmV0iHXMxK4OVe51IKoHFx3QLXQlYNSRg1RA+wZ/gxM8YsK7qdx04mQ/dRlv0swQsAYtAAlYNEcIyMxuSBKxyWc/d73dxSR42NGwnEljmDZoEPbYErGpY8Ymc6BQKP3+SoK4IYJnJhLHccFjYM0up0pWIcBNJc2EReJaAFYtge1a6keik4WFIsOUoGQxGYJvbz5J+E8RhF5U8ith1GbeYpQj6DtbNw7en31HA8vJHVLbSE8luZTM5jGL9Zt1gpjqus7fbbG7/PdQTwRGmOCAbnN0jHd2QbZY0Lf5WnrfQ00m1d5mrqybn9qxur8wSXqZp3f0QqDK6/XEGj2BmJ/rQAr21urt6EKQ2dXR73P3+fHYTrnqdPV/9Pn7ictuHkJCQkJAQgSZOo//L6DpyVN0QsAiltVq6gEUoVcAil4BVQwJWleaT5CVVWBNv7C2nniSNbVpVMpa7HP/pJ1eUPWshSb1DyW1Nqovuhca6qu0UVm8+7fEC61Bt7RSWZ0+9pYBFoBmAJR32pwIWgUBVLvxx6VXJVDuFxZsaDcv1p57j9fp5z5/3cOWxsFy7oHc0mXoLp+djvhdz64vK7Q0NTVOBNMNJcU3HhpottvxjGGP4wvljADwtzTCMP6h4BMudjnUgY9yXcp9r6VHli7z7zb30exf7kaBcB5iuatBMYLSqxZ5hg7fPswX7Wks9hC8cWBAUBUphue7CQIaDG/phpvqhDt/RAbCWaizTG/OFASjphqFrsDJ9H559E2C5pju+7bp2DzZbi37HNjCyGJbv9YbAvEXP87wYlurpqqqfL5wZJKkltOaAnqr2JnN7OQa1G158owdQGQsf+Np8eQ7hG1/ftyYGMHQaX7nwdzwOX+NhSQU5qwVNR07pjqGjxTdboOAiej0F3xX71hBWlkTlDOKeUTRrNwLOpDrpJWQXGVoTlj5OTIcxOgxfLtQshCn0rbAY/J5M3UPoWjTs2anWYKHfcWhoPVjaNFewZSAvm6wxAU4XVQFvZOLOh5OtX36WYR0WajXKtfVg5fpZ4JMa6g0A9KqXuTHRY4xrsFx9H2FBK0L7/gLWGMBaRpXln3JqXPsaLHS9f7Dgcw4h+QtY8V3opvlMBHPYGL7gAxZMWijNUIAFuyK5KsIUD1/wActRoy4PBViOmnRE0jrConzA8mLLKcCaqeknQiXPD45gwWYLWBvaKazNMPT5CkOHYhhC8PkEv+QrwcOnITKHAqz+RtehF+PjA9YwHthRgGVvdEphFkNfxwUsF/bg0RsQlpYtWh8WJK/lZlthykIDIS5gLRNzIKycPVvAgn3QYeYGHBuGs69cwIJRGAWfkZ9LyMGakcFKPSn92DSufD9hjdNWe1o6cTdW8wYsMr0mLzedgIe1BK7USt739ZYaOdq+wmqpuhe129NbKRA4GRVNtQBN0ex6ci+JJyg8LOkw88vw9WTub49hqaox9pZLR4UXaY6B6Fr6ENzpzXRgdAYWmsYbxiBLYElj8EGtN7Ftfwb8yoifjfsKS104BlyO0sLZ4czNKVryAnc0VdVVJzd4GcOHpaHHCxYGDpaEFo/Q6o6qDxMextoKxd7AciTb0XSARDOGy9xde2bA93Vj6PlwNlNdpPeWQ0PXw6Ww8+FQzcKanQ9bafqfLPSw8ux6ogo+koUFr/cEFtCkP536RavJvj8J357nYYE+2WRCuNg38Zd9/+svdVVpowePF+h4kRblVDVggSeght380AjVgOVr2Y5oE1UDVk9t7cWGhN2pBizQtdKrS/Esclj++sOweSKGZavxYnJzRQqrB8d10+pyXIsElt1fwKFh41lVw+qfG2jTns7NUZrt5Q91vRTWBG1m1BfN7jTEsr3yMBweOtycdRASEvq/9R9YYveVSwMKYAAAAABJRU5ErkJggg==;rotation=30;" vertex="1" parent="bJMO8v2EHOdU1gCzrCnr-1">
          <mxGeometry x="103" y="87" width="64" height="35.84" as="geometry" />
        </mxCell>
        <mxCell id="bJMO8v2EHOdU1gCzrCnr-4" value="" style="shape=image;verticalLabelPosition=bottom;labelBackgroundColor=default;verticalAlign=top;aspect=fixed;imageAspect=0;image=data:image/png,iVBORw0KGgoAAAANSUhEUgAAAXYAAACHCAMAAAA1OYJfAAAA3lBMVEX///8FmIoAl4YAl4oFmYrT4uEAlYcFmIsAl4UAkIDy+Pfn8e8AlYnC4NwAk4QAkoIAi3oAhHsAj3ywzsplsaoAkYQAjnt1tq8AjH0AlYwfnpHT6ebM5OIAjYMAiHcAmYOLwrkAkXrd7OuZy8fC392u19E8pZkAkYodoZBdpJqItbFenpc3jIQQenB+w7kbjoJBrJhVpJc7l4tuuq1erqBBqp+h0Md+ta13sa1hs7ZXsaWMxsBqu6tJn5dJrp6Gw8Ct2M1lvLY5l5UqoJm91dATi4mSwLyJxLNSrakAgXNRB45jAAAP0ElEQVR4nO1cD3/iNhLFkleWQdjgILABx9gkkN222WaTkF5y273rZnPb7/+FbkbG4P9kf7du73p6bSlgWcjP45k3Iym9noaGhoaGhoaGhoaGhoaGhoaGhoaGhoaGhoaGhoaGhoaGhoaGhoaGhoaGhoaGhoaGhoaGhoaGhoaGhobGXxTJ2bsffhyPf/rpxx/enSV/9mj+P7C4DsIwfP9eyvcAeBvMFn/2mP7yGP7sEhZQyzAM/M+wTGIFzs+Xf/a4/tJYbOLIsLhpmEcQ06LCmQ9Pnjx4t9rj6Wl1QPr2j/RUF+oXl43HF8+r2dubD8779+cj2/5wM1td9Guavahu3nQ3zgz925gTRmmecgDYvGnw+LFubHm8+cm3bdeVDsB1XQ//lVLi++nFdxlgcrG+O93Kd23pekbD0f65H4YSxsRdx+UOvHqxN5qvB+WGtgxt+/zsPxzyaSzmwjQo/HNgnd4TRTulEaeB1WxACm/GggGoZVkGYwROZQxONeCtd+LU16B/xR3g4WS7XUwZEyJueDz7UylgnATbwMjwlUeccPex9EQy6IaNOqd9GJsWWjZNDRz9ejB003dwKwyD+e0e/s04MNX1sP0lESKYiW9F/B1oH8SECjY92e6LZPCzJruvP9yPYVwmDg6fZmUbhBhCmNx9KjQ0LEFJ57Rfety00FCP4OuFY+Qh1209AO0UDQ1pJw4YEiGOeu8K7zs4mUFs0iA4SftliDcdHtpRvf7qe6aBpHPX9gAuDJQwoN0wqdzk/ahhUWr5HdN+6cONNwqsG6S3LNIeeW28753MvAb8e1i7Syn4jlPN5spxUEqdx9rjKe18M5k9PDysHn7528aQoYCL5eBprnK8M6Dd7Njal1JwDk9dnnZnDV8XaDdMt8XPAO1gOUElNn0nIO2UnLL2YczxeQP/EcnakaS0u3k7SNZXHuEEz8ndKoZBbtop7X3w4Uq1IO1wdSnJ/d7SLbAODwNvZhWtnbCwU9rZqZD6yIF2J0Q3F76ra5DSbpcC7mUItMOVy+P3DLjo2Nrv2V6/WCnvKp6CQynRDhlUsGnsJKVddEe7cZr2JCQc/NyZyyCcb+skb98jNbT3BiYH2UDJ/PANw7vcKe07F5WKUQioNIADJd8OCL6smnpJlUz9o/0dMPCg91O030rwc86u53IiSFgXiYB2VkN7b7DFnEX8fsiPDIgkndLe55yaELaDPO32rldHu+mcN/GKSkaIDmk3wGu3094fgXeJwDs+eXCLgqCuiYcS165Kq3WMWn588ExIu+hSyVxHoJ8oLapHNeQq7TyK/t7QTapk2mlfXF7fbeZw9+Z31w3RuX92++vcZNbmbrbLBz6knTG/n0f53B0HC42uoTFK17ynPnbvsVprR6cPSYb8mH1maO0d0t6HBxIVl5FnPZUsVdrBFbkNxKZKpuloDys+49B1ITkBJcgY98a31VLNYjK2CVYoKPgCHo4/HvgB2jHB8c9H5wh89cu8z8FgyRRHMAEXT8WvNVc7baC997MSFQfnjllql+nSGrJlUTR1w0h/vSwgFdh1fT+ptbfQfjGlkPiBulPPL+FCVvKvlQwExUyXpsluEB6eiZR2rBMRVXqA6E1LtA9tOCxV2WYJRk3NafW+NtN+66j+sz5hiJ369jlcadHDWIFMr7bO2g2T1fdzkvbEh3MxezUNE2knAQs/FVpMwAKAcIdjcotGb8gDcRntmM4zfKWsTPtXFAZhyuhGMBrIWWUQjU6mN3NVFSkbvwAb6ZD2JAwyoZ6xbln7R23JaljnYX2VKVUyTotvH0Eq6GJK7tkSknJOiNjmPfwqFFiNE9sQEvc4djHGHQ7uaWc5lGhPJPim4HP6YR2CkyGs4v6blAzQzlUhLzsjCDq19vU2oqrUlWM2C/S11m4Eq9qOTisZY8pvPq0vLpbLi0+/+VgZiYLwSMwipGjs0/l6uUgWi+HTx1F89M4DV7EupbR93/dsL/TtIqkPITeYu/dbfQkxhHmVuL2nvaZIdK+qeAfaRdCpknnLojKvJMuJlq4q1UFwy90WU9SnTMrJiG0L7Zf56tSQo8EzuTp8cwuRRNA4x1T/H8cPkC4B7aOWK5EUpPfhtv/TESbhlaHunUwN7aooJj9kH5lFu8xSt1j4LIAeHsEF39eygoIbsmtnPJSSafPtJQxsjjfVOnwxdQgLnKaqz8ClEDBbdPula4GQmmQfl75BHOKW65D7kFql/SKG4bDxQ/YZ7It0p2QGYMhIe86/B79VWt0WnPyodo5OFQdIcPFm8UZhoYDvGn4aCyEg9LPOkhgSemE2DhRob81S54SCvjzyCQ8pPKbloNqoZD5HqJ9+f84+45xad759yQ1F+1HJBLJiCqW6u/dc11NakwkgGtoAL/bSN7bXSJXFIVGTmXm/GaFnnzc1Bt/OzBbaFx4oRpaby1t5kP6w8pPZpGRuPRCkgnuH5lhv7472S1amXVTnZSZF9y9rHUGqZDgnJsVsJ9oXvg1mN/32zEHas0mdZIxSudnagUWjhfZfHGaY7ip3QgwylcW7YrN6JdN/VLLJyJ2Pcaa7LBVoV+HySLtXsYRkywtKR9TOdgDthprKezXtZ5IGgZNlX4MxaIegLqFPD3tGG+1oxQbz8+7vEX4/ij+U21VrMotr7pqgogJCjl92W5Op0F4zCXnHi8Ke7Go6ygq/jKtSAwVjQes1WmgfSkKpcwiCXyQBA4sbYjLq9hbaLz0KtBeEy9AWgnO/GFSVk2HuLo08y4uzlwnxwELAg1ER59oynKHs0MmYRdrtyhxk4pYqB04T7ZABGTKcAjz1Aq++PW2kagkxlRxpv3YhppKo7Bb2UOlSs5L5CHfMcIunogWLbTGoqpBqmo70/RFgOg1xiQp0De5umn/Suq3JDEv6kVWnICfCKMKrHUxq7c6iX0Gh2WC4W81mD7vLBGiH5/1I+4CoigDbztc1CjXNUptoT3xcyVaKnzMHUs2gmKnuacdoSxSAdWGqmSVRMLhuazJLpuaUzL2ANLc1xl5i3fCblAxcRXvhd3lrgrbBBUy27fM5VgmPtPeGPsV4APKDTypqCkJqC+3XEVp2yWQWPtBOi/O/6GRywAAE1k64G6+KJ3dbk+n78KsWTmilxj6ptJjwchrbpNsDSDDaajIXc18t4UhLK2BuFLVG7hcvtg6WFznnYShKJo+0G420RwRYD8v36gMEaVpMqtOQmgEXzAgpbfvXXfkBw9BEu8tSJcE5UpOkWoVdpZhfZQIj2Zq8yLrVlKUGBuEttM9CtGTCzIx2uNngA/I3OtnIIKDpYi3pzPJ9KdqbQuowhsdVVGaTdhLkyTEhQ+xplyql8PHR+/D2pW4RJE5z0O5qMnecWZaZ0W6ip8d1YYf07o6btBBSTfGxtqM0S22mfTJCqiGIco5FyAioJVHetysMNx40oQyPBXnJ1Krb79T6Luvx5uZtHvfoRHiu7KOcjGCgZBIUMkkyqE5R7dHxyoGdZ+RoP4rEPe2Ji6uW8ryb2/p5jlTJNNK+9gkmsdvw6l87rEFePn2VKqaV3dpiZsdqjgOyTu84g9hGez/E22lShzscUmNXuvjiOAIdFnH8fNMp0l5xR1V0W5PpJbHZRvvESGk/8s5l/RqvdmvvS4HeXE5yT/xCoj+pRpP+buuILU4DmPYv2ZdttK+lQHWSipOj5wYvoW5sPgFMaW9Myo7otibT612RFtoTryxjgP/6fpSSafTt61C51FX+u2UD7YDLz2EABHIxzu4x1tubaP+ZkUKgzBEP3oqI3E+kvv1VtHc6u9Rbu0i7WU/7JCJl3nnjXGpbSH10BOXka+G7FtrR+QVouk420aFor1cyi5hhOJDSt3EOJHUytoRX12VqPeTRge+LA6+gvduQ2us7pmGWud3TnsjyU2AYzSsHQEA20i6wvOgWr3ZpG8209waKdjOrCQ4crLfXroFccazxXj29PK2enl5ecDeJen16Wd3aIL+pfQzN30R7t+tkONiRoHW035HS1wHzqtPCKdp9uw8eg/jFg+20w2F0E+4++vU5Liid1nXPiSl4vKrtxMVNBLmiaqpkXkF759sK+hEIc6s0j61oT1Qtq+DZhd+8Kgyz1GbaQVR8G+29uaI9S4lx1YFZrRiB5nRxYj2u3x81QbkUfDkcTEPqfwPtuAYSCa3SPglKRTDLkk9NvbRbO85UktIEyina70BDCje78g10YPCaOtkdaB7Tvarv4wLLi4F8yT7/91h7r/cVSKkJqYlX2mhglEqrBYBvb1EyGxdXdhYd1CnaN7gd5mDtjxySV6f6+/14C1GzcacJVwnAIYF9vW/vfltB3+Vl3pH2SVShvWWGWk1zNNJ+rS53W/AEJdrL+eJCBvD8eNkpZz4WDcLKzNZuCrQzu2lg1w5uZTrkGt9Eu9HxJpqlE5XqXWxWlTGm6bcMVzmZRtoXNgO1GJBh4buCgNzcXOaZX5gMNWeUfR5MOU4X8QPvw6/K0d94jkFZzXLH/aXZWHs7SPdX0/5HbKLpncVF1o1g1ptAlshzet48vXeppSazUbkLi+er52WSJIvF8mxCCrSPbc99+/S8XMDR59UmlIRFkb869PBVIu/M2zzsLterSeCppUiDEScGtZt39+DMN+PZFNc3hFTD7H6D5OXYKEiZ7WyAJTKyz6PwmBmf2KnXSnsSYyldEMexw9CLvdDeSpVaZrQnY0m43IY4JQUNImhLzHw9JRlHanaCux7kRVIwifX1lYPJqNNU0YIGLtbVs/Vh30J7p8WBPS5ckt8xJq5nNM1eU9rh/237xXqnK5DPYcQo57ism0dRxJyAmrhxNaP9bCzxKNbAGRZTKC4KDvLB4CWOeL7uIrBMEeEMVUtc7iW2gLvl7r1QOs3xCtpF55toUizmTn6J+yZ1LOkHcHPCPLkLu03JAC6oDLAiiJVs8NpodVhWzxibfQk5RnZMZyFvZgZzvU2xt5Uv1PST2mbMAgFafWlTxqPWja+bLZ6yzxnAt6MFvcLaRbc1mSNmYSknPbp14r/ibw6MR6NR4x4bxBpciFqQAsBJZH80nVqHdTKfgvOp6wi1N50Q1z7fVMhZfh7ZLhZ0GZNy9BFC8OM5dBK3bldd/w6/5P+eSvf++XQ68s9PF35Hfggn/RG0995sXAYWH+UFDJi5Ybqv+Asb/XT5XXuj5Gz269yy5vP7u1/erZ+XxZs0OJvdbCycaZs/zs5qb+DiZbKZw/k3s2dlB+nCi/a/4FFok344ZUMw0le2+y4Y3geBjI6zeODhBIk3+u/JdI3Fp/fjkDEj3TsRhq55rf960h+C5Oz6/op7Hrm6f9B/K0xDQ0NDQ0NDQ0NDQ0NDQ0NDQ0NDQ0NDQ0NDQ0NDQ0NDQ0NDQ0NDQ0NDQ0NDQ0NDQ0NDQ0NDQ0NDQ0ND438f/wZT/iGMUmTg7QAAAABJRU5ErkJggg==;" vertex="1" parent="bJMO8v2EHOdU1gCzrCnr-1">
          <mxGeometry x="84" y="63.18000000000001" width="66" height="23.82" as="geometry" />
        </mxCell>
        <mxCell id="bJMO8v2EHOdU1gCzrCnr-5" value="" style="shape=image;verticalLabelPosition=bottom;labelBackgroundColor=default;verticalAlign=top;aspect=fixed;imageAspect=0;image=data:image/jpeg,/9j/4AAQSkZJRgABAQAAAQABAAD/2wCEAAkGBxMTEhUTExMWFhUVGBkaFxgYFxoXFhkgFxsYGBwYFxsYHSggGx4lGxcXITEhJSkrLi4uFyAzODMsNygtLysBCgoKDg0OGxAQGzUlICYyLS8tOC8tLy8yLS8tNTUvNS0tNS0tKy0tLS8vLS0tLS0tLS0tLS0tLS8tLy0vLS0tLf/AABEIAOEA4QMBIgACEQEDEQH/xAAcAAEAAgMBAQEAAAAAAAAAAAAABQYDBAcCCAH/xAA/EAABAwIEAwYEAwcDAwUAAAABAAIRAyEEBRIxBkFRBxMiYXGBMpGhsRRCwSNSYnKC0fAV4fEzkqIWU2Nzsv/EABoBAQADAQEBAAAAAAAAAAAAAAACAwQFAQb/xAAsEQACAgEEAQMCBgMBAAAAAAAAAQIDEQQSITFBIlFxBRNhgZGh0fAjscEU/9oADAMBAAIRAxEAPwDuKIiAIiIAiIgCIiAIiIAiIgNbE4+nTexj3BpqEhk2DiL6QdtUXA3MGJgxsrUzTLaWIpupVmB9N27T5XBBFwQbgi4UCcfUwEDEva/DkkNqEhhaSSWte6vWl3hB2+gECaju67BaUWHCYplVofTe17Ts5pDmn3CzKHQCIiAIiIAiIgCIiAIiIAiIgCIiAIiIAiIgCIiAIiIAiIgCIiALHXote0tcAWmxBWREBA4fLquHf+zcXUjye+o9w8miCALbqcY+RP3EL0tB+BDDqp+G5JsXEzvaVNy3dlcIOL46f7fBvotVmNaQSZECbgtn0lR9fNppQPj2P9wo4ZohVKXRNIoludNaxpeCXc4A/UrLhM5pv6tnbUI+uybWRlBx7JFEReEQiIgCIiAIiIAiIgCIiAIiIAiIgCIiAIiIAiIgCIiAISvFWoGgucYA3KiMXj3PIaz4DueZ9ei9SJRi5MjsTUD3uLLCbefn5JToOnf0W5RoX2WLE045en/Ckpro1Wt5WHwaz6Zcbi3XYL9q0eTZNr2st3DkkbH3Wam3qn3MHllal2RtHNq1HwkBzP4pBb8pMLeyziijVeKZljzsDcH0cP1hZalBrhda9HL6LST3Yg7x9x5qSnXJcoz2VS7iywIsWGADQA7UORO/usqqIBERAEREAREQBERAEREAREQBERAEREAREQBa+Kxjae5udmjcrYVFzXFlmKqjVN7zy1AQB6AhWVw3sJrPJNUsf3ziHDblyWR1RjbSBKrzswbTewgzqIkC/K4spHM6fMdQb9D6qcqeVnplivik0ucEgyp4ohauLxQZuYPVatbFPkBouABbmvGOvpLhciQTskKcPkz6nUpJ47R+szQ6zMhoj39VuPzE6dQaPJYcPSD/ABNIhZMRRkAAktbNuhK8ajuxgv8AuSlWmnyyMfnjp8/kvFfPzptM3m/TmtDOmimJ5/TrZVk5pB1cv8/z5Lo16eE0ng+W1Or1UbJVqWTpXDOOe8yDIBAe07gH4Xj6z77q0rmXAmZg4obxUaW+X7wn3Ee/mumrFq69k8HW+m2SnTmXeQiIsp0AiIgCIiAIiIAiIgCIiAIiIAiIgCIiAKIzbhyjXJc4FrzEubEmLDUCCDbnupdFKMnF5R40n2RWU5FToGRLnbAmLeilUReSk5PLPcYCqHFOBeaoLBYgc4jdW9RWZtYXiTcN2+d1Oqe2WTPqaVdDa3gh8spFo0+kr8xeK7pxkG4t0W3VrNbcKGznHisGt0xpm/0U4qU7E2uPJmtsjRVthL1Loi8yIrOLXOaxp3cTYdNv8uqjiqIcYBBDRyEC1pUzm1GALiCNpH187KGbRc5pi0TPTpbquzTwuOjlqNbX3G/V5JjhB1B1dlGqDTLiDRqg6XB4Nm+bXQBB5i267K2Yvvz5LhGCfRbUp08Q091Whj3tJBpz8NRjvylrgJ9HSOS7jgqTmU2te/vHNABfGkuj8xAtJ5xz6Ln69YkmdnRtOHBnREXPNgREQBERAEREAWOtXYwS9zWjq4gC3qqhx1xh+GPcUSO+IlzrHuwdrGxcd4OwvzC5Vjc0Pie9zqrjuXklw3vJ2HP2WynRysW5vCM9moUXtSyzv2FzKjUMU6tN5G4Y9rj9CtpfL9TFBz2PpyHtMjk6dwRBnluuvdmnGrsSThsQf2rR4HHd4G7XdXAXnmAekn2/RuEd0XkthNy7R0JEWvicbSp/9Soxn8zg37lYiZsIov8A9QYaY7ySejXH7BZKGd4d8xVbbeZbzj8wHNS2y9j1xa7RIIsdOu13wuB9CD9lkUTwIiIAiIUB4rVWsaXOMAXJKouNz7W8vaIEkewtt1WrxFxjTrYr8NScCxn5hdrn+R2IG3rPQLQxFQC5/wBl0qNK1HMlyzgfUddJT2R4S/c3344u3/zyWGo+fJV/FZw2DoMwYtePb5rUwvEInxWJuOm8RPstX/nOep2zWdrZtZm8tN5I84j/AHUP+Jc+oGhwbLgLnS0Ta/KASpzF44VaZbMNmeUzeOU2v81B4nLAKYPMkkHYEf2mQtEcpYZZpYR8ms1or4oYfvA3vHlrHGCJcCGAujYugbc13Tg8YluGZTxbNNWl4CQ4Pa9rfheDJPwwDqvLT1Xzni6ZY689RHnG3y+y7h2acVPxTH0K/wD16FpMaqjRA1OHJwMA9ZB5mMOujJxyukfRaeKisIu6Ii5JpCIiAIiIAsWKrtpsdUcYaxpc49A0ST8gsqrPaVjTRy3EvbuWBouB8bgw7+RNualCO6SQZxXHZg6o99ep8dVznm8i+w9ALegCiHYgkuM26X5nf6jfqtVtXckkk8wTzGxnfcj+6kaVBri0ta5rdIDti4nTcgGAAXfIFfQRfsZXGK5ZgoZPWqgmix9UjdrGPe5s3E6WmFly3GVcPWY+7atJ4dDgQQRye0wbixHQr6R4eyxuGw9Ok0AaWjUQI1OIGpx9SqT2wYai5lPwN7+SdezwxtiD1GojeYvCx1apTs2Y4ZOz0xyQvEfafVrUmtwrH0RE1ny0v82UjeB/GRPQDdUnKWHU6q4ue5273O1kmf3nSSYG56rzljJ122JMbgC4F/X7KQw9ZktpNMECfEQBb8o872HP3VyrhWsRRZU5M2m417TIJiet+u3NKeNeagDSRsY9dlt1cEbhpMOiQIjqCbxv8pWPHtZTeQ1pghocA4EnaYNx8/0heRw+j26bxybdfHOqNMx4R1g/MnlI817wGcV2jw16rItGslvycY5hQFcg2abSSJNwOhMC/pZdFznJ8JSwjqtN+qqQw3qajLi1pMT0K8sUYYWOzJG1ybz4PGWcT4qfFV1jlLGifOwnqpmtnGL0Oczu4G0sPz+JUvBP0loB5f4B7K+YbOqbaJnkPuseqWzDjHP5E9O1Pdulx8lKzfjHMQHaXtZpFy2mDF4vrn6KvvxuIxRIr4mqW2Ma4Dp6NHh89lMZy/vnFzRyIBJGm3iO8D9PVQ2CokidMwDaDAEfFA3iOfkunXCEVnakzjTusnmMZfBF43D1KU6ZguB2G7RO4vboOqsLKne4cajBdt8jMHotHFtDmxzDgIPxExPw7xssGArPbqZY67AWN95b0VkmlyRqpnaknwfoyoCi9wc0BugkSJdNjBIB3JkD6woirQYRINhAj7/2UxiajHs0y4ObbTp6i4ty8z19lC0aoDhdrmuMlt4EmPFHkJt1XkZZRtjpJwfeTEa77sk22gXMeX6+S3MFmhLCx0nUQLnw8zeNvFptG09F6GGIxDWueGhzgHOBs35gQ4SQehm63+PMvp0XsdSr65a0WMkBrQBEDkBz6KLkslzhFNQaIWpUc0xqmPEHSQWlps5piZBjkuy8LZM1+Jw+ZUmNpivhXd+xtgKpNI2HmQ+f5AdyVyHJ30X1Q7FVXNa6dT4L3TBiQLkEwJ6ei7l2cUi3LcOCZ8LiDfZz3uG46ELJrZYjlfH6mytJLBZURFyC4IiIAiIgCpva4D/plaBPipfIVGkn5BXJVPtTwhq5ZiA3duh/sx7XH/xBPsraHiyPyjyXR871N5jc/wCfdSeBxj29C2RMASY9pgjlsYUboJ9r7x91t0n0gI8RLg0GQAASTIEEyI03sd7de4uyiSyj6nBVXqZZh8Zi8S2vTFTuW0WtBJEamuefhI5lSPCWO77CUnSC4NDXR1aAPqIPutbJKWnHY/8Ai/Dn/wAHCPoVxI5hu91/KLXHdg4/xFimYfEYnDU26KTXuDWzNxN53sDABlX3M+H8NTyo1qTG06jqVJxqOc785p6nOknkSuX9oZjH4okRFV14sdnb+i67xawjIiHCCKFAHyg0p5H7LddJ4r/HH/BX6HlGXhTKMLiMK15a11TZ7w4yXAfGb7kQduaqdDJDUxbKZFjUAcDyDLuHyab+dll7H8e6nVdRqG9dusfzNExHLwyfYK+4HBOGMrOLGhgAdTcCZPeDxS3YXa6/mqHN1Skv0Lb63J5/MpnaLl2Fw7GU6NINe/U527rAaBILrGXSDv4CpXOOFMIzB95TotY/9mdWp3MtncxcEj3UdxQ1tfEVHm7WtLGxvaR8i4E/1K08UNP4AgEi1Lbn4mW99lY5yiq1l5zyYtkW5NrwQXDPDjK51vJ7umdLY8JeRc3F4uLg39lON/0+o78OAwu2iHC45B+xPoVscN0y3BNAnVDz5yXON/PZc4qYN8NNFridYLSPikQWxGxsF4v8spZljHRDG2MVFJ57yTfEWSfhKjXUJh06RznYgk72cI6/eYwXDmFw1HvMXpc4xq1SWAn8rW/mv6+UCyrmHbim18L+KNXT3zI1l0SXAD4ue23VWnj/AC99WizSfCwlzvlAPsC75pZZL0wcvllmn0cITbS76/A84fLctxcikxrXi/haaTxy1RA1CeZBC59icuFHMBh6zmsIezS6DFUOIiI2LpjyM7qY4HqvdmDLuOim9rukRtytqhZu0Kk05pgzpBcBTm5FhVIBtvGpx+XLf2DlCbhnjH6Gp1RUuEWbHcG4TWx+kU2MJL/G4arjSNU2GqTYi/qqzjsgwVTNMPSpU6bqLqbu8aw+ElneXeWmZ1aNzyCs3aDQFTDtYTALwSB+bSCQL+d/ZaHC2WUW1abwIe0ERPLS7l6ucfcrPCxqOW35NMK81uTfufmc8O5ZhnMq14ZSEhtOXu1vM6nuElz4Fo2EmZtHjG8GZbmGHNTDNbTcZ0VaYLCHDk9tpvuCJ6RYr97RsvbWI1OANOk5wBcGzDhIE8yAsnZKIwlT/wC90f8AZTUt0lXvUnkqdfp3HFhgX6nMdpDmDTDdZ1Fp0wNQ3PsLcl9IZBgPw+GoUP8A2qbGE9S1oBPuZXLeD8obWzA2tTqPqO3/ACPJA6CXELsKlrLc4ieTio8BERYiAREQBERAFr5hhW1aVSk67ajHMd6OBafoVsLHXDi1waQHEHSTcAxYkeq9XYPl7F5a6myk+pbvafeMty1OYfq0n0IPNarRJaPPeL3gRY7CLepVr7QsVTqYllCjAo4Sm3DMPmydRF9phv8ASSoOpRDQwMOtzoGkCHSYsI3BcfDzNrDZfQQbkk2Z5ek6z2R19Pe0dTjLWVACCI3aSDzBsP6VIcS5+zLswZWqt/YYuloe9oLnMfQcS0kDdumq4QBNvJZODOH34auNQjTgsOw8xrdUxD6gB5wQ35rx2vZQa+Xuc0S+i9lRt4tOh1+ml5P9K5U5Qlf+DLYRljHky5w7Kng4moxtQnS6Bq8ZgFmpshrrR8Vtls51mFLEYQ03QH1AwlhDoBlriJiDEb81ReHuGKndMa6uQxpa7SA1wJnUQDpu2Lbqz46m2qGODYDdjufPbr08lGyKTWHk201rd6/BgwOFYyqyoxviYZn1iQbq34/NWNY7S7xRax3O3JQuVUS46SR+vyXvHMABAvuDbpff9fJR4clkp1Msv0lbdltiNR222849P7K15ni6VXC901/iIaNnflIJ5eSgTUEzA3E9Pos+GcRbYDrFjur5+rD9jHCG1OMvJv8AD2ZsoM7p4IGokO3F/LcBboq4Gm41A9oO8BxgG99AtNzyUdVoWBkc/ooTG05JcLxaPQfqoxgpvOezPdf9vCSTx0TXEtelVp96+QGg911kXLjFwbD6LZy/iOhXoEYghhsHAktB/iabEbexsqPjMO59IBoJ2gA8+Zv5fJflXAfhZ1aX+ATzHiFwPMeV7KyVMNu3PPgt0Tsse5+S5YfMstwYe+i5rnO30ONV7o5AkkD5gLneNzV+IxrMQ+WjvWGBJ0Na5sNtciBJtckrO0sDwZGkAAzBPQ2nqTzX7VdTlwYw+RtDZH9khFRbfbOzGpRLfxZntDEU6fcv1ltQEjS5pggiRqaJ/wB1qZLmYZiGuqOLWM1EyJiWkchO8KEwVmy4SGnwuEe3+ea3G4qmx7TVY409z5ibzzjdUuCSwi2CUYOKPXaHmVKu+mKRJAYZOlzYM2HiAkLc7Pc+w+GwzqdappcapIGl5sWsEy1p5gqpZvmFJ9R/dgsZPhbY2nYn1C/KdQO0lzgQBfeYba3t72VyqzDayuxxVagdM4CwDGU6lUEF9V7iY3DQ52kEbjcm/VWlcOzfNf2wfhppQAW6XuGm3M2N4mPRbuXdqOJpQ2s1tcdY0P8ActsbH90KuelnL1IyzWcyydkRcoPa7UEE4RhaeXeuB8wD3cExHzV+4W4loY6l3tEmxh7HWcw9D5HkRY/NUTosgsyRU+CZREVICIiALTznFGlh61Ub06b3j+lpd+i3FhxmHFSm+m7Z7XNPo4EH7r1d8g4DlHC5q08DVebYvEmmR0Yw3g76nFtS87AeavnZzwZTp1sRiKrZdTxFWnQBuGtY4jvPNxBsTsPVTnBGUtOW4NlRt6ZFRsE+Fwe5wgm+xI8wSrTSpNbOkAajJ8yef0Wy7UyeYr+8kcZ5Z7UBx7jWUsBiC8wHUzTHrU8Agc7mfYqee4AEkgAXJNgPVcc7QeIvxdTS1pdh6DrbgudBBqRsQLgDe5POFnphumjVp6J2NuK4XLIXLuI6rGu7p41WDJAi35SHW/5XS8mx/wCLoteWNa9ph4BMW2IBEwfPouK0qrGio51KdQimQ8t0uDtWrSLOBAiLQrnwhxEaJBnU1waCNJdHQdfZbrak45iuS65uby+H/s6J+Eh1rRz+c3WJ9Mxc2m8357/ZWLCUxpDi0tMbHcLRxobJEG5v0XOU2imLUnjBX/wZde2xn22C/KxDSGm9hA9P8+q3XiIG7natuUCdvovWTZV3jxVJ8LDte8cvT5q6Nnl9GfU1uUcLszjCVAzVomRNrmCOm8qJfl7vhMjVGqWkDebn/NleEKh91oyy0sZYbKNQxTqGtlnDYE3deBaPoq9mOKYQ5pLdXKTztcW9efNdWdQad2tPsF5GFYDIY2eukSpRuS5wX0Rdfbz7HDsJhX1DDGud1LWF3sSB5LfxJDNTJIf8L5BaSYFtPKCAu0BclzQh2KqvgH9o/wD/AERvyV8Ld76N0bXI0W4hsNYOUTO22yw5o6aZcCYgyIMNAsR6eaz62yOYkTt6n23V64Ey7S19UgyfAJ2gQSR5Gw/pUpy2cljsUVk4liMRvBAm0X9LFb2VVoYSXmRNhOpokDwxaSAdzy9F3XHcMYKtJqYWi4nc6Ghx9wJWtQ4KwDDLcLT95I+RML1ayGOmZbLN5wjE1HGWhjiegub+GfD5/wBl+4Xh/G1B4cJXM9aL4/7nNtPkV9HYTA0qQinTYwdGtDfsFsLx6/2iUbX7ny5mWW1qD9Nem+m4QdLwWkjq3qJtIKuvYvidOOewExUouJEQJaWkWBPwy4D+c+1o7a8Frw1AgeIVtM6SYDqb3GYuBLGSfIKo9igH+ou6jD1I6Hx0hsROxV7t+7Q5MhjEjuiIi5BaEREAREQHijSDGhrRAaIA9FTu0fiephW06dF2l9SSXwCWtaQPCHWkk8/3T7XRcX7TMaKmOqN37prGC9ti8/V8eyuojunyb/ptKtvSkspckBmOe4zEDRVrve0QYmGm9tQaAD7rGwOdTIBuCNLQD4pkG/KLesrXd5LqHCfZ4GtbUxZcXGCKQMNb5PIuT5Ageq0ymoI+htlTo4ctpPrH9/c59Q4Zr4h4ayi4vttZjR1c6QB6He66lwTwSzAh1WrU7ysRczFNg38M7/znpaLq3UKLWNDWNDWjYAQPoonjHKX4rB1qFN4a94EEzB0uDi10cnAFp8iqHfKXpzhHzeq1KvnlLH98lVz3jgVXmlhfHTA8ToPj5Q23w+fP72XEVIDQTyF9hYKvcH8KfhKYdWB7w7gwWj0It9VMY6k2oIPP9FCzZuxHpF0YxWIrx2Z3ZGzEsIqiaT2wRJlwMbRsD1/5U/TYGgACALALVy7GNe0CwcAJH6jyW4q2zFbKTliQREXhUEREAXIMzYxtR5LwT0AN58R9bmJXW69QNaXHYAlcozDDNYCBBe8kmxiBvAJJj+2y2aRcsrstUF2aOXg1HtpU2BznECNpNvWQBfyAJXYsBhhSptpi+kRPXqfcyVXuA8i7ig2o8ftagm+7QYOm/M2J87claFXqLFKW1eCxSyshERZwEREBRe2Sm12X3PiFRjmiRJ06tUXvDNTv6VznsqxunNaX/wAoqs582l/PzYPmtrtafiWY53eHwPaRRNnM7shoc1ocCGuDhci9xeITgJr8ZmtCsyjTpNoNl4pt0sADHMDj1e5zh5mD+6V1IR20Y8NNkEsvJ3ZERcsmEREAREQBfO+eVu9xNd5PxVah9tRj6QF9A47EinTfUdsxrnH0aCT9l83YepIBcfUgSR13iea1adcNnZ+juKnJS6ZeezPhV1V4xL7UabvCOdRzYP8A2tMHzIjkV19RnDOEFLCUKY/LTZPqQC4+7iT7qTVE5bmYtbqHda/ZcL4CIigYwQtHE5a11x4T5bH1C3kQlGTj0VvFUTTeLR0I29QQvT80qU4JeC3zG/2U/WpBwLXCQVAZtgyxhMAgTe5t1I6r1dlllu6HPZL5bj21WyNxuBcX6GBI3+RW2ue8N5x3WK0vltKr+zpy8ENNiBHnO/8AEOq6EpThtZlrluXIREUCwiM+oPcaWk+CXCoJgXFifQ/dRGJyymJDQX1GiGDkCenzUvxLmVOixoeb1HFrR1Ia532CiuFa5qV6vwwxrLDkXTBJm5s5aq9yhu8Iy2Otz2PtlrAX6iLKagiIgC0s7xYpYavVJgU6VR5I3GlpMj5LdUZxNl78Rha1BhaHVWFgLp0+KxmLxE7KUcZWQfNWMxtSrHeVH1S0WdUe6o+L83XAmTE8x0XcOyDACngG1IGqu4vJggwPCGmQLCHRFryJmVA5F2PgPD8XWD2gz3dIEA+TnuvHkAD5rqdGk1rQ1oDWtADQBAAFgABsAFt1WojKOyBGKaPaIiwEgiIgCIiA552t8TNpUfwbD+0rDx/w052Pm6IjpPlPJnDwmOY2Vw7YMoezGiufgrMADv4mDS5ny0m+8noqtl+Fc91OkHXqODRbZzzpHryuupVGMa00dT6c8Plce59IYUeBv8o+yyrzTZAA6AD5L0uWcx9hERDwIiIAozPMaabR4Za7wuOrTGq36qTWPE0G1Glj2hzXCCDsQvV2ePo5FnVFhIc9sNktgkB2qSXTeRAAubCNl0jg+u9+DoueZdpIneQ1xa0zJmWgXm6ruc8J1HuFFkd3UcD3hAc6kGzLQD1BI6fD0V2wmGbTY2mwaWMaGtA5BogD5K+2acUkFXsSMqIiznpyPtdzRr8VSoBxHcsJdANjVjz30Ab2iorB2X1mvOKLZ+KkDPLwk9biS5cuzoVTVNSt4atR9XvCXSJDh4CAPBEkQTtGwVy7KswYzHVaQNq9FpB6upOdG530PO1oYuvbVt021eP5MMGpXKR1tERcg3BERAEREAREQBERAEREAREQFU7TstFbLq371KKrTEwadz82ax7ritOuAGwBIuXEQZMWBmIEWIAN19G5jhBVpVKRMCoxzCegcC39VQMN2TUmvaXYhzmgglugCQNxIdInqtmnujGDUmatNcqm2zT4M7QKnfMoYl2tjy1rakeJjnQAHkbtJIbO4J3PLqa5u7slpeLTiajQ4mPCJaJkCZvFr+S6MwGBJkxc7T5qm5wbzAjqJQk1KPns9IiKkzhERAEREAREQBERAcz7Y8NRaKNaA2s5xbrAhzmhtwY3gkRO0nquY/6o1jqL6AdSrUzq16pGoEwQALCLEbGSu58XcI/jalCp37qRoatOlodJcWmb9NAVZd2PUjJOKqEn+Bo+xXUo1NcalGT5M0qm7NxbuCuJWY/DCsAGvB01WT8Lh0/hIII8j1BU+qfwbwN/p9V9RmJc9tRsPYWAAkGWusbES4ejirgufbs3PZ0aFnHIREVZ6EREAREQBERAEREAREQBERAEREAREQBERAEREAREQBERAEREAREQBERAEREAREQBERAEREB//9k=;" vertex="1" parent="bJMO8v2EHOdU1gCzrCnr-1">
          <mxGeometry x="40" y="77.5" width="35" height="35" as="geometry" />
        </mxCell>
        <mxCell id="bJMO8v2EHOdU1gCzrCnr-7" value="" style="group" vertex="1" connectable="0" parent="1">
          <mxGeometry x="40" y="280" width="190" height="190" as="geometry" />
        </mxCell>
        <mxCell id="bJMO8v2EHOdU1gCzrCnr-8" value="" style="image;points=[];aspect=fixed;html=1;align=center;shadow=0;dashed=0;image=img/lib/allied_telesis/computer_and_terminals/Personal_Computer_with_Server.svg;" vertex="1" parent="bJMO8v2EHOdU1gCzrCnr-7">
          <mxGeometry width="190" height="190" as="geometry" />
        </mxCell>
        <mxCell id="bJMO8v2EHOdU1gCzrCnr-13" value="" style="shape=image;verticalLabelPosition=bottom;labelBackgroundColor=default;verticalAlign=top;aspect=fixed;imageAspect=0;image=data:image/png,iVBORw0KGgoAAAANSUhEUgAAAOEAAADhCAMAAAAJbSJIAAAA9lBMVEX/////S0u9QEN9NTv/RET/QED/QkL/Ojr/SUn/Rkb/Nzf/Pj7/PDz/PT25PkG+P0K5Ky//T0//urr/39+5LjK7Njn/9vZ1ISl7MTdzGiP/jIx4KjH/8PD/6up5NTv/k5P/pKT/0tL/s7P/m5v/WFj/fX3/bm7/x8eof4L/4+P/oaHQgILco6TitbbrzM3NeHq/o6WEQkfRvr/mwMGSXGC2lpj/ZGTKbW/p3+CNUleHSE3GX2G9R0rYUFLTT1H/wcH/aWnUjY7HrrCba2//goKZaGvf0dJwDhqkQESNQkbvU1TxU1PKTlC0SU2bRkq6nJ6eNjvVOz0tI80+AAAIeElEQVR4nO2de1vaSBSHRe63DRcBFVzuIlbb2ou11V2sbXXb7ra73//L7EwgIZPJZM5cAn14zvtXLWDye3g5c+YkpXt7CIIgCIIgCIIgCIIgCIIgCIIgCIIgCIIgCIIgCIIgCIIgiJDexbOL3rZPIkkua61Wq3a57dNIjuc1Z39/36k93/aJJIZDA5KIzrZPJCk+tvaXtD5u+1SS4Xlt32NHPd13/IS76anvqOvps22fjn0Cju6opwFHd9PTZ619ll3zNOToDnrqOFxCx2lv+6wswjm6a55GOLpbnrYjHN0tTyMddT19se1Ts4PAUdfT19s+ORuIHN2cp43rySDJ47wQOZq4p+2f3cOXJGCpWMjmBokdJsbRhD192e2m00cPe5NCKpUqZLOjZA7TbokddT1tJeTPQ7eTplzt1WlCkrFaXyRxoFhHk/P01dUyH03Yz6SWFPKTmfUjvY53NCFPHz8cHa4Cds/2mvlUys94PbR7KJmjiXj6+MbPRz6Hj3vLD+KKYum0afNgUkfte3rzKZAvfXhF/mqUTQUo5qcn1o4GcNSypzdnwXxEUrJa7LVLKYZM6djS3B3iqFVP22dH3TTDk/ubP2fYiKlcaWzlkCBHXU/f2Thc+204X/rwk/vIMJ8Kk8sOzI8IdNSWp+4CH6LzavlYvcBFLGTLpi1AuwZz1PW0ZiqNt8CHWD06yHIJScayYQsAdtSCp+sFnqH7dvV4rxSRkGSsmLQACo66nhpccnv80DmMCpg+uvGeMi1GRjRpAdoHcEddTw90PWUWeLbOvPGfNONrzQrtFuCdiqMUTU9vvojyresMpcDXmnXG6Vz9wJdqjlJ0PGUbGO5jGHjmeU6YUKsFgK71QdQ95Rd4NuBZ4Lkn0bVmnVGxBVB2lKLoacQCL6ozlFNBrfFQawE0HKUoeRq1wLN15j3z/Fk1PqFSC9BTrKMezgH40yBY4IN0HtiXZMW1xstYrjdgh9dylAL1VLDAhyQNvWgcV2u8jLAWQNNRygHEU5IvpoB6MHWGMo+vNV5GQAvQ06ijHgBPH9/HLRCBt/Ax/Mp7Sa1ZIW8BbnUdpbRu43953ALPcPiBe22jDEroTgHiWoDLA4OAEk/jF3hW0pf8y0GausS1ALp11CPGU8kCz/IUsYAfh7f6sRn7ghbAyFE3osBT6QLPvoWfIn5FE/4mpmgLcB51HoaOUqI9/Slb4Fn4OkO5li6JQQrZKt8C9BT29cI3scZ7+tBRyrccIvKMoLXGy1hOhVsAY0fdiGFPX6UBCzxD92dkwvBYEZCxUmdaAAuOUlhPYQs8y5OgXHFjRUDGYAtgw1FK0FPoAs8Q2NyzRIwVARnXLcCtnYABT2+EE4pYgpt7lolSrfHwpgAXdhylHFy4+eALfOg9FAWMHisCIC3AiTVHKdTTnsoCz+APEXkEY0VQxvG7mDsS1CPeKi3wLOzmnkU0VgSQS327+81exNZfv+sGDG3uWbRqjUeh/ofFjM5X3YTiOkNJadWaYEZrCe9038ROXEDtWuNnnFjL6Gh6ym3uWSRjRVDGPy2pqulpXJ2hyMaKkIzf7WTU8zRic88yqxgnJJ/l73/byKjlaXiIyJMzqjV+xm82Mup4eiSdzkPGirCM5kuHhqeSOkOBjRUhGevmGdU9jd7cs1ioNX5G4xZA1VPB5p5lobjVTzSjqqdRQ0SevI1aE8xoFPEfpYhRQ0Sevp1a42PWAih5evgFEjB4t6IdjNocJU/jm+41amNFSESTFkDJU1hA+CWMzWR0fkDzxWzuWdTHiiC02xywp0+SpnuNyiUMONotANRT4RCRx3qt8TPqLY9AT6F1hqI3VkwsI7CeduXBfEaGW31JRvWIEE/BdYaSUK3xMyq/jRBPZZt7Fo1LGCoZ1VuAuytZwNghIo/RWBGC6vIo91S+uWeJuDN6uxmlnnYUb/wzHStCUGsB7uIDAjb3LPqXMOCoTToknkI29ywGlzAUMqq0ObGeSoeIPDbGiqCM8BYgrp52QJt7lmLitUY1Y5yn8iEiT+yd0bYzAiMKPY28Q0iG+SUMhYzAFkBYT9XrDMXeWBECKKPIU9AQkWchuzPaMpAWwPkRGVFwh5CUyoZqjQ+kBYisp7AhIo/tsaIUwAWdSE8VNvcs86Tb78iMkqUjylOVzT2L9bEiJKO0zeE9Fd8hJCOBsSIoY2wLwHuqtLkPYfUShlpGBU/VNvcsyYwVjTOynipu7lmSGitCELcAIU/16wwlsbEiBGELwHqqMkTkSXCsaJQxcMlNeXPPkuhYUY6oBQh6alJnKMmOFSFELo9rT43qDCXxsaKc6BbA81R1iMiT/FhRSlQL4HuqOkTk2cRYUUrE8rjy1LDOUDYxVoTAZ3Q91dvcs2xkrAihzrYArqeam3uWDY0VIbBtDvUUdoeQjE2NFSGwLcBXrSEiz+bGihACGZ074B1CMjY5VoSwXh6dfy3UGcpmx4oAvIzOnZ2Aiv+6dBOsWgB7X9M73n7rFoZeCKhd2ApI9vpbGmfEUf/P6ndJj/Jb32OEKJYGNgOSgjotlTMxX0W0UQqFXOle45uPJPQax5NMPl8t5zLFrUQtFIqZbLmSz5cLk7H9fEvaveascX58OqmWSuRIWRKWpE0uLvndRRIrW87nS6Xs9bQ/aAybvQ19C3hvPlyMBv3p/SSVI3ErZZqXvrsmgZeJMjmSqUpCVYr161MSazQbzrf6v0S12yfN4awxOO9/Pr2u58rVKlEpn69Uy4QsIbck4+P+mHUhT6lW/OdnJvfT4/54MFrQUL/uV7a3eyfz+XA4WywajdFoNBicj8fjPuHYhfyB/Hw+GJDHRo0FCTNsNucnv3AgBEEQBEEQBEEQBEEQBEEQBEEQBEEQBEEQBEEQBEEQBEGQzfE/0XoU+1lpl0sAAAAASUVORK5CYII=;rotation=30;" vertex="1" parent="bJMO8v2EHOdU1gCzrCnr-7">
          <mxGeometry x="100" y="63.18000000000001" width="45" height="45" as="geometry" />
        </mxCell>
        <mxCell id="bJMO8v2EHOdU1gCzrCnr-10" style="edgeStyle=orthogonalEdgeStyle;rounded=0;orthogonalLoop=1;jettySize=auto;html=1;entryX=0.011;entryY=0.495;entryDx=0;entryDy=0;entryPerimeter=0;startArrow=open;startFill=0;" edge="1" parent="1" source="bJMO8v2EHOdU1gCzrCnr-18" target="bJMO8v2EHOdU1gCzrCnr-2">
          <mxGeometry relative="1" as="geometry">
            <mxPoint x="440" y="375" as="targetPoint" />
          </mxGeometry>
        </mxCell>
        <mxCell id="bJMO8v2EHOdU1gCzrCnr-14" value="" style="image;aspect=fixed;perimeter=ellipsePerimeter;html=1;align=center;shadow=0;dashed=0;spacingTop=3;image=img/lib/active_directory/database.svg;" vertex="1" parent="1">
          <mxGeometry x="720" y="358.5" width="50" height="37" as="geometry" />
        </mxCell>
        <mxCell id="bJMO8v2EHOdU1gCzrCnr-15" style="edgeStyle=orthogonalEdgeStyle;rounded=0;orthogonalLoop=1;jettySize=auto;html=1;startArrow=open;startFill=0;exitX=0.995;exitY=0.511;exitDx=0;exitDy=0;exitPerimeter=0;entryX=0;entryY=0.5;entryDx=0;entryDy=0;" edge="1" parent="1" source="bJMO8v2EHOdU1gCzrCnr-2" target="bJMO8v2EHOdU1gCzrCnr-14">
          <mxGeometry relative="1" as="geometry">
            <mxPoint x="710" y="374" as="targetPoint" />
            <mxPoint x="600" y="381" as="sourcePoint" />
          </mxGeometry>
        </mxCell>
        <mxCell id="bJMO8v2EHOdU1gCzrCnr-19" value="" style="edgeStyle=orthogonalEdgeStyle;rounded=0;orthogonalLoop=1;jettySize=auto;html=1;entryX=0.011;entryY=0.495;entryDx=0;entryDy=0;entryPerimeter=0;startArrow=open;startFill=0;" edge="1" parent="1" source="bJMO8v2EHOdU1gCzrCnr-8" target="bJMO8v2EHOdU1gCzrCnr-18">
          <mxGeometry relative="1" as="geometry">
            <mxPoint x="402" y="374" as="targetPoint" />
            <mxPoint x="230" y="375" as="sourcePoint" />
          </mxGeometry>
        </mxCell>
        <mxCell id="bJMO8v2EHOdU1gCzrCnr-18" value="" style="image;aspect=fixed;perimeter=ellipsePerimeter;html=1;align=center;shadow=0;dashed=0;spacingTop=3;image=img/lib/active_directory/security.svg;" vertex="1" parent="1">
          <mxGeometry x="300" y="352.84" width="31.5" height="50" as="geometry" />
        </mxCell>
      </root>
    </mxGraphModel>
  </diagram>
</mxfile>
